<?xml version="1.0" standalone="no"?>
<!DOCTYPE svg PUBLIC "-//W3C//DTD SVG 20010904//EN"
 "http://www.w3.org/TR/2001/REC-SVG-20010904/DTD/svg10.dtd">
<svg version="1.0" xmlns="http://www.w3.org/2000/svg"
 width="256.000000pt" height="256.000000pt" viewBox="0 0 256.000000 256.000000"
 preserveAspectRatio="xMidYMid meet">
<metadata>
Created by potrace 1.11, written by Peter Selinger 2001-2013
</metadata>
<g transform="translate(0.000000,256.000000) scale(0.100000,-0.100000)"
fill="#000000" stroke="none">
<path d="M1137 2524 c-319 -56 -570 -291 -653 -609 -19 -76 -22 -109 -20 -215
6 -223 56 -341 273 -647 51 -73 120 -176 151 -230 67 -114 225 -423 216 -423
-4 0 -1 -6 5 -14 16 -19 121 -256 121 -273 0 -7 4 -13 9 -13 5 0 13 -17 18
-37 4 -20 13 -38 18 -39 6 -2 23 36 39 84 16 48 37 107 48 132 11 25 26 59 33
75 38 92 59 135 67 135 5 0 6 5 3 10 -6 10 32 89 50 102 6 4 6 8 2 8 -5 0 0
13 9 29 10 17 22 27 27 24 6 -3 7 -1 3 5 -4 6 4 31 17 54 73 129 133 224 202
313 187 245 219 291 252 361 45 99 65 194 66 329 2 122 -5 184 -29 264 -81
275 -306 491 -582 562 -98 25 -245 30 -345 13z"/>
<path d="M1456 378 c3 -5 10 -6 15 -3 13 9 11 12 -6 12 -8 0 -12 -4 -9 -9z"/>
<path d="M1533 305 c0 -8 4 -12 9 -9 5 3 6 10 3 15 -9 13 -12 11 -12 -6z"/>
<path d="M1536 261 c-3 -5 2 -15 12 -22 15 -12 16 -12 5 2 -7 9 -10 19 -6 22
3 4 4 7 0 7 -3 0 -8 -4 -11 -9z"/>
<path d="M1450 220 c0 -5 5 -10 11 -10 5 0 7 5 4 10 -3 6 -8 10 -11 10 -2 0
-4 -4 -4 -10z"/>
<path d="M1490 220 c0 -5 5 -10 11 -10 5 0 7 5 4 10 -3 6 -8 10 -11 10 -2 0
-4 -4 -4 -10z"/>
<path d="M1450 179 c0 -5 5 -7 10 -4 6 3 10 8 10 11 0 2 -4 4 -10 4 -5 0 -10
-5 -10 -11z"/>
<path d="M1496 182 c-3 -5 1 -9 9 -9 8 0 12 4 9 9 -3 4 -7 8 -9 8 -2 0 -6 -4
-9 -8z"/>
<path d="M1335 100 c3 -5 8 -10 11 -10 2 0 4 5 4 10 0 6 -5 10 -11 10 -5 0 -7
-4 -4 -10z"/>
</g>
</svg>
